<?xml version="1.0" standalone="no"?><!DOCTYPE svg PUBLIC "-//W3C//DTD SVG 1.1//EN" "http://www.w3.org/Graphics/SVG/1.1/DTD/svg11.dtd"><svg t="1495876866773" class="icon" style="" viewBox="0 0 1024 1024" version="1.1" xmlns="http://www.w3.org/2000/svg" p-id="16613" xmlns:xlink="http://www.w3.org/1999/xlink" width="200" height="200"><defs><style type="text/css"></style></defs><path d="M759.68973 901.972782c71.633481 0 129.880069-58.227146 129.880069-129.86165L889.5698 252.68193c0-71.615061-58.246589-129.879046-129.880069-129.879046L258.821255 122.802884c-71.625294 0-129.890302 58.265008-129.890302 129.879046l0 519.429203c0 71.634504 58.265008 129.86165 129.890302 129.86165L759.68973 901.972782M759.68973 957.60994 258.821255 957.60994c-102.452393 0-185.53667-83.048461-185.53667-185.498808L73.284585 252.68193c0-102.477976 83.083254-185.534624 185.53667-185.534624l500.868475 0c102.485139 0 185.534624 83.056648 185.534624 185.534624l0 519.429203C945.223331 874.561479 862.174869 957.60994 759.68973 957.60994L759.68973 957.60994 759.68973 957.60994z" p-id="16614"></path><path d="M477.971487 759.156076c-21.107737 21.107737-55.364959 21.107737-76.471672 0L197.577403 555.234687c-21.107737-21.107737-21.107737-55.365982 0-76.471672 21.113877-21.142529 55.363935-21.142529 76.477812 0l203.916273 203.905016C499.085364 703.792141 499.085364 738.035036 477.971487 759.156076L477.971487 759.156076zM895.149888 341.953116 477.971487 759.156076c-21.107737 21.107737-55.364959 21.107737-76.471672 0-21.115923-21.122063-21.115923-55.364959 0-76.489068l417.159982-417.194774c21.123087-21.10569 55.363935-21.10569 76.490092 0C916.270928 286.587134 916.270928 320.838216 895.149888 341.953116L895.149888 341.953116z" p-id="16615"></path></svg>