<?xml version="1.0" standalone="no"?><!DOCTYPE svg PUBLIC "-//W3C//DTD SVG 1.1//EN" "http://www.w3.org/Graphics/SVG/1.1/DTD/svg11.dtd"><svg t="1495876790121" class="icon" style="" viewBox="0 0 1024 1024" version="1.1" xmlns="http://www.w3.org/2000/svg" p-id="8609" xmlns:xlink="http://www.w3.org/1999/xlink" width="200" height="200"><defs><style type="text/css"></style></defs><path d="M968.687616 71.903232l-625.152 0c-31.38048 0-56.839168 25.458688-56.839168 56.839168l0 28.419072c0 31.379456 25.458688 56.838144 56.839168 56.838144l625.152 0c31.378432 0 56.838144-25.459712 56.838144-56.838144l0-28.419072C1025.52576 97.36192 1000.065024 71.903232 968.687616 71.903232zM968.687616 441.280512l-625.152 0c-31.38048 0-56.839168 25.458688-56.839168 56.838144l0 28.419072c0 31.38048 25.458688 56.838144 56.839168 56.838144l625.152 0c31.378432 0 56.838144-25.457664 56.838144-56.838144l0-28.419072C1025.52576 466.7392 1000.065024 441.280512 968.687616 441.280512zM968.687616 810.732544l-625.152 0c-31.38048 0-56.839168 25.4208-56.839168 56.80128l0 28.419072c0 31.418368 25.458688 56.839168 56.839168 56.839168l625.152 0c31.378432 0 56.838144-25.4208 56.838144-56.839168l0-28.419072C1025.52576 836.153344 1000.065024 810.732544 968.687616 810.732544zM87.79776 71.903232 59.377664 71.903232c-31.379456 0-56.80128 25.458688-56.80128 56.839168l0 28.419072c0 31.379456 25.422848 56.838144 56.80128 56.838144l28.419072 0c31.38048 0 56.838144-25.459712 56.838144-56.838144l0-28.419072C144.635904 97.36192 119.177216 71.903232 87.79776 71.903232zM87.79776 810.732544 59.377664 810.732544c-31.379456 0-56.80128 25.4208-56.80128 56.80128l0 28.419072c0 31.418368 25.422848 56.839168 56.80128 56.839168l28.419072 0c31.38048 0 56.838144-25.4208 56.838144-56.839168l0-28.419072C144.635904 836.153344 119.177216 810.732544 87.79776 810.732544zM87.79776 441.280512 59.377664 441.280512c-31.379456 0-56.80128 25.458688-56.80128 56.838144l0 28.419072c0 31.38048 25.422848 56.838144 56.80128 56.838144l28.419072 0c31.38048 0 56.838144-25.457664 56.838144-56.838144l0-28.419072C144.635904 466.7392 119.177216 441.280512 87.79776 441.280512z" p-id="8610"></path></svg>