<?xml version="1.0" standalone="no"?><!DOCTYPE svg PUBLIC "-//W3C//DTD SVG 1.1//EN"
        "http://www.w3.org/Graphics/SVG/1.1/DTD/svg11.dtd">
<svg t="1495979339398" class="icon" style="" viewBox="0 0 1024 1024" version="1.1" xmlns="http://www.w3.org/2000/svg"
     p-id="2517" xmlns:xlink="http://www.w3.org/1999/xlink" width="200" height="200">
    <defs>
        <style type="text/css"></style>
    </defs>
    <path d="M634.618579 1023.995894 58.144186 1023.995894C26.117945 1023.995894 0.015911 996.575773 0.015911 963.234524L0.015911 300.77032 286.717393 0.391115l423.219006 0C745.761893-3.629873 772.014829 23.867238 768.064673 57.281372l0.367504 342.782819-0.439362 0 0 51.987465-69.17085 0-10.676098 0 0-51.987465L688.145866 80.09332 303.976742 80.09332l0 239.97918L80.079461 320.0725l0 624.076446 554.539118 0L634.618579 1023.995894 634.618579 1023.995894zM1023.983062 695.250091 840.749396 695.250091 840.749396 512.009239 695.46002 512.009239l0 183.168993L512.003593 695.178232l0 145.290403 183.234693 0 0 183.457453 145.360208 0L840.598493 840.682157l183.385595 0L1023.984089 695.250091 1023.983062 695.250091zM1023.983062 695.250091"
          p-id="2518"></path>
</svg>