<?xml version="1.0" standalone="no"?><!DOCTYPE svg PUBLIC "-//W3C//DTD SVG 1.1//EN"
        "http://www.w3.org/Graphics/SVG/1.1/DTD/svg11.dtd">
<svg t="1495877038089" class="icon" style="" viewBox="0 0 1024 1024" version="1.1" xmlns="http://www.w3.org/2000/svg"
     p-id="18622" xmlns:xlink="http://www.w3.org/1999/xlink" width="16" height="16">
    <defs>
        <style type="text/css"></style>
    </defs>
    <path d="M898.368 64l-770.368 0 0 128-93.632 0c-17.6 0-34.368 12.512-34.368 30.112l0 64c0 17.6 16.768 33.888 34.368 33.888l93.632 0 0 64-93.632 0c-17.6 0-34.368 12.544-34.368 30.112l0 64c0 17.6 16.768 33.888 34.368 33.888l93.632 0 0 64-93.632 0c-17.6 0-34.368 12.544-34.368 30.144l0 64c0 17.6 16.768 33.856 34.368 33.856l93.632 0 0 64-93.632 0c-17.6 0-34.368 12.544-34.368 30.144l0 64c0 17.6 16.768 33.856 34.368 33.856l93.632 0 0 128 770.368 0c35.36 0 61.632-30.528 61.632-65.856l0-832c0-35.36-26.304-62.144-61.632-62.144zM320 960l-128 0 0-64 34.368 0c17.6 0 29.632-16.288 29.632-33.856l0-64c0-17.6-12.032-30.144-29.632-30.144l-34.368 0 0-64 34.368 0c17.6 0 29.632-16.288 29.632-33.856l0-64c0-17.6-12.032-30.144-29.632-30.144l-34.368 0 0-64 34.368 0c17.6 0 29.632-16.256 29.632-33.888l0-64c0-17.6-12.032-30.112-29.632-30.112l-34.368 0 0-64 34.368 0c17.6 0 29.632-16.256 29.632-33.888l0-64c0-17.6-12.032-30.112-29.632-30.112l-34.368 0 0-64 128 0 0 832z"
          p-id="18623"></path>
</svg>