<?xml version="1.0" standalone="no"?><!DOCTYPE svg PUBLIC "-//W3C//DTD SVG 1.1//EN" "http://www.w3.org/Graphics/SVG/1.1/DTD/svg11.dtd"><svg t="1495876101510" class="icon" style="" viewBox="0 0 1024 1024" version="1.1" xmlns="http://www.w3.org/2000/svg" p-id="549" xmlns:xlink="http://www.w3.org/1999/xlink" width="200" height="200"><defs><style type="text/css"></style></defs><path d="M996.571429 502.857143C777.142857 265.142857 685.714286 192 502.857143 192 338.285714 192 228.571429 265.142857 27.428571 521.142857 228.571429 740.571429 338.285714 832 502.857143 832 649.142857 832 832 740.571429 996.571429 502.857143ZM886.857143 502.857143C777.142857 649.142857 630.857143 758.857143 521.142857 758.857143 393.142857 758.857143 265.142857 685.714286 137.142857 521.142857 246.857143 320 393.142857 265.142857 502.857143 265.142857 649.142857 265.142857 704 320 886.857143 502.857143ZM365.714286 438.857143C365.714286 398.460343 382.090971 365.714286 402.285714 365.714286 422.480457 365.714286 438.857143 398.460343 438.857143 438.857143 438.857143 479.253943 422.480457 512 402.285714 512 382.090971 512 365.714286 479.253943 365.714286 438.857143ZM658.285714 475.428571C658.285714 374.440229 576.416914 292.571429 475.428571 292.571429 495.623314 292.571429 512 308.9408 512 329.142857 512 349.344914 495.623314 365.714286 475.428571 365.714286 455.233829 365.714286 438.857143 349.344914 438.857143 329.142857 438.857143 308.9408 455.233829 292.571429 475.428571 292.571429 374.440229 292.571429 292.571429 374.440229 292.571429 475.428571 292.571429 576.416914 374.440229 658.285714 475.428571 658.285714 576.416914 658.285714 658.285714 576.416914 658.285714 475.428571Z" p-id="550"></path></svg>