<?xml version="1.0" standalone="no"?><!DOCTYPE svg PUBLIC "-//W3C//DTD SVG 1.1//EN" "http://www.w3.org/Graphics/SVG/1.1/DTD/svg11.dtd"><svg t="1495876604712" class="icon" style="" viewBox="0 0 1191 1024" version="1.1" xmlns="http://www.w3.org/2000/svg" p-id="3647" xmlns:xlink="http://www.w3.org/1999/xlink" width="232.6171875" height="200"><defs><style type="text/css"></style></defs><path d="M1169.360372 512.038099C1175.561526 512.038099 1180.65533 514.031327 1184.641786 518.017783 1188.628242 522.004239 1190.62147 527.098044 1190.62147 533.299197L1190.62147 575.821392C1190.62147 582.022546 1188.628242 587.116351 1184.641786 591.102806 1180.65533 595.089262 1175.561526 597.082487 1169.360372 597.082487L21.261098 597.082487C15.059944 597.082487 9.96614 595.089262 5.979684 591.102806 1.993228 587.116351 0 582.022546 0 575.821392L0 533.299197C0 527.098044 1.993228 522.004239 5.979684 518.017783 9.96614 514.031327 15.059944 512.038099 21.261098 512.038099L1169.360372 512.038099 1169.360372 512.038099ZM320.909693 469.515904C308.507386 454.01302 297.212428 436.295439 287.024819 416.36316 265.763721 373.398025 255.133172 331.761709 255.133172 291.454211 255.133172 211.282155 284.810121 142.847997 344.164019 86.151737 403.074977 29.898416 490.112595 1.771755 605.276874 1.771755 627.423851 1.771755 664.409302 5.979681 716.233228 14.395532 745.467237 19.710806 784.667386 30.341355 833.833674 46.287178 838.26307 63.118881 842.913935 89.252313 847.78627 124.687476 853.987423 179.169039 857.088 219.698006 857.088 246.274378 857.088 254.24729 855.980651 264.21343 853.765953 276.172797L845.793042 278.166025 789.98266 274.179569 780.68093 272.850751C758.533953 206.85276 735.722567 161.451457 712.246772 136.646844 673.268093 96.339346 626.759442 76.185597 572.720819 76.185597 522.225712 76.185597 481.918214 89.252313 451.798326 115.385746 422.121377 141.076239 407.282902 173.410825 407.282902 212.389504 407.282902 244.72409 421.899907 275.729857 451.133916 305.406806 480.367926 335.083755 542.157991 363.653355 636.504112 391.115606 667.06694 399.974397 705.381209 414.591402 751.446921 434.96662 777.137414 447.368927 798.177042 458.885355 814.565805 469.515904L320.909693 469.515904 320.909693 469.515904ZM930.837433 639.604688C933.938009 656.87933 935.488298 677.254549 935.488298 700.730344 935.488298 749.896633 926.408037 796.848223 908.247516 841.585116 898.059907 865.946791 882.335553 888.979641 861.074456 910.683684 844.685693 926.186567 820.545488 944.125619 788.653842 964.500837 753.218679 985.761935 719.333805 1000.378934 686.999219 1008.351851 651.564056 1017.653575 606.605693 1022.304441 552.12413 1022.304441 501.629023 1022.304441 458.442419 1017.210642 422.564316 1007.023027L329.547014 980.446655C304.29946 973.359622 288.353637 967.158468 281.709544 961.843194 278.166028 958.299684 276.39427 953.427349 276.39427 947.226189L276.39427 938.588874 276.39427 765.178047 276.39427 735.944037 344.164019 734.615213C350.808112 749.675157 357.452205 765.39951 364.096298 781.788279 370.740391 798.177042 375.72346 810.579349 379.045507 818.9952 382.367553 827.411051 385.135926 833.390735 387.350623 836.934251 402.853507 862.181805 420.571088 882.999963 440.503367 899.388726 459.549767 915.334549 482.804093 927.958326 510.266344 937.260056 536.399777 947.004726 565.633786 951.87706 597.968372 951.87706 626.316502 951.87706 657.1008 945.897377 690.321265 933.938009 724.427609 922.421581 751.446921 903.375181 771.3792 876.798809 792.197358 849.779498 802.606437 821.209898 802.606437 791.090003 802.606437 753.883088 784.667386 719.112335 748.789284 686.777749 733.72934 673.932502 703.387981 658.208149 657.765209 639.604688L930.837433 639.604688Z" p-id="3648"></path></svg>