<?xml version="1.0" standalone="no"?><!DOCTYPE svg PUBLIC "-//W3C//DTD SVG 1.1//EN" "http://www.w3.org/Graphics/SVG/1.1/DTD/svg11.dtd"><svg t="1495896188798" class="icon" style="" viewBox="0 0 1025 1024" version="1.1" xmlns="http://www.w3.org/2000/svg" p-id="1960" xmlns:xlink="http://www.w3.org/1999/xlink" width="200.1953125" height="200"><defs><style type="text/css"></style></defs><path d="M799.998 160C799.998 195.344 828.654 224 863.998003 224 899.342003 224 927.998003 195.344 927.998003 160 927.998003 124.656 899.342003 96 863.998003 96 828.654 96 799.998 124.656 799.998 160M1023.998003 160 1023.998003 512C1023.998003 528.976 1017.262003 545.248 1005.262003 557.256L557.246 1005.256004C544.766 1017.752004 528.374 1024 511.998 1024 495.622 1024 479.246 1017.752004 466.75 1005.256004L18.75 557.256C-6.25 532.256-6.25 491.744 18.75 466.744L466.75 18.744C478.75 6.744 495.03 0 511.998 0L863.998003 0C952.229999 0 1023.998003 71.776 1023.998003 160" p-id="1961"></path></svg>