<?xml version="1.0" standalone="no"?><!DOCTYPE svg PUBLIC "-//W3C//DTD SVG 1.1//EN" "http://www.w3.org/Graphics/SVG/1.1/DTD/svg11.dtd"><svg t="1495876997008" class="icon" style="" viewBox="0 0 1024 1024" version="1.1" xmlns="http://www.w3.org/2000/svg" p-id="757" xmlns:xlink="http://www.w3.org/1999/xlink" width="200" height="200"><defs><style type="text/css"></style></defs><path d="M918.415778 556.642756 548.962332 924.32179c-45.38363 45.119617-118.863155 45.119617-164.188456 0L97.416192 638.360919c-45.324278-45.149293-45.324278-118.311593 0-163.402557L466.868615 107.279329c28.217668-29.468149 33.630958-42.384319 63.24544-42.384319l375.265826 0c29.613458 0 53.587476 23.88192 53.587476 53.354162l0 373.464807C958.967356 521.18315 942.151365 532.964474 918.415778 556.642756zM146.264737 595.645049l281.412274 279.988856c22.162766 22.104437 58.107419 22.104437 80.326467 0l39.761586-39.562041L186.942181 475.248981 146.264737 515.667529C124.108111 537.739221 124.108111 573.572334 146.264737 595.645049zM897.193431 152.534022c0-14.411221-11.734252-26.115797-26.260084-26.115797L555.967886 126.418224c-14.46955 0-35.033911 16.432251-47.963385 29.250184L227.101833 435.229522 588.437391 795.654338 869.737102 515.667529c14.126742-14.101159 27.456329-35.263132 27.456329-49.704029L897.193431 152.534022zM610.518293 413.662321c-45.324278-45.11757-45.324278-118.281917 0-163.402557 45.382607-45.11757 118.864178-45.11757 164.185386 0 45.38363 45.119617 45.38363 118.284987 0 163.402557C729.382471 458.782961 655.900899 458.782961 610.518293 413.662321zM733.629191 291.104007c-22.63144-22.543436-59.401902-22.543436-82.035388 0-22.690792 22.576181-22.690792 59.140958 0 81.71714 22.633486 22.573111 59.403948 22.573111 82.035388 0C756.31896 350.244966 756.31896 313.680189 733.629191 291.104007z" p-id="758"></path></svg>