<?xml version="1.0" standalone="no"?><!DOCTYPE svg PUBLIC "-//W3C//DTD SVG 1.1//EN" "http://www.w3.org/Graphics/SVG/1.1/DTD/svg11.dtd"><svg t="1495876730175" class="icon" style="" viewBox="0 0 1024 1024" version="1.1" xmlns="http://www.w3.org/2000/svg" p-id="6525" xmlns:xlink="http://www.w3.org/1999/xlink" width="200" height="200"><defs><style type="text/css"></style></defs><path d="M192 170.666667l0 215.317333 28.309333-0.896c9.706667-78.592 73.493333-132.202667 109.781333-141.098667C366.4 235.029333 448 256 448 256s0 502.101333 0 533.333333c0 31.274667-55.082667 45.098667-55.082667 45.098667l-56.618667 0.896L335.402667 874.666667 688.64 874.666667l0-38.378667-64.64 0C594.816 833.642667 554.666667 789.333333 554.666667 789.333333L554.666667 256c0 0 67.562667-23.68 131.285333-12.074667 63.722667 11.626667 117.738667 144.725333 117.738667 144.725333L832 388.650667 832 170.666667 192 170.666667z" p-id="6526"></path></svg>