<?xml version="1.0" standalone="no"?><!DOCTYPE svg PUBLIC "-//W3C//DTD SVG 1.1//EN" "http://www.w3.org/Graphics/SVG/1.1/DTD/svg11.dtd"><svg t="1495876845765" class="icon" style="" viewBox="0 0 1024 1024" version="1.1" xmlns="http://www.w3.org/2000/svg" p-id="15960" xmlns:xlink="http://www.w3.org/1999/xlink" width="200" height="200"><defs><style type="text/css"></style></defs><path d="M341.333333 170.666667h568.888889v56.888889H341.333333V170.666667z m0 284.444444h568.888889v56.888889H341.333333V455.111111z m0 284.444445h568.888889v56.888888H341.333333v-56.888888zM113.777778 113.777778h113.777778v56.888889H113.777778V113.777778z m0 568.888889h113.777778v56.888889H113.777778v-56.888889z m0-284.444445h113.777778v56.888889H113.777778V398.222222z m56.888889 56.888889h56.888889L170.666667 512H113.777778l56.888889-56.888889z m-56.888889 341.333333h113.777778v56.888889H113.777778v-56.888889z m0-284.444444h113.777778v56.888889H113.777778V512z m56.888889-341.333333h56.888889v113.777777H170.666667V170.666667z m0 568.888889h56.888889l-28.444445 28.444444 28.444445 28.444444H170.666667l-28.444445-28.558222L170.666667 739.555556z" p-id="15961"></path></svg>